# xmcd
#
# Track frame offsets: 
#        150
#        11355
#        26755
#        40000
#        56620
#        68700
#        82965
#        118687
#        137702
#        168910
#        188750
#        213487
#        263365
#        279562
#        298297
#
# Disc length: 4290 seconds
#
# Revision: 7
# Processed by: cddbd v1.5.2PL0 Copyright (c) Steve Scherf et al.
# Submitted via: ExactAudioCopy v0.99pb3
#
DISCID=d010c00f
DTITLE=Michael Bloomfield - Essential Blues: 1964-1969
DYEAR=1994
DGENRE=Blues
TTITLE0=I've Got You In the Palm of My Hand
TTITLE1=Last Night
TTITLE2=Feel So Good
TTITLE3=Goin' Down Slow
TTITLE4=I Got My Mojo Working
TTITLE5=Born In Chicago
TTITLE6=Work Song
TTITLE7=Killing Floor
TTITLE8=Albert's Shuffle
TTITLE9=Stop
TTITLE10=Mary Ann
TTITLE11=Don't Throw Your Love On Me So Strong
TTITLE12=Don't Think About It Baby
TTITLE13=It Takes Time
TTITLE14=Carmelita Skiffle
EXTD=LABEL =Sony Music Entertainment Inc.\nID =CK57631\nUPC =07464-
EXTD=57631-25\nCOPYRIGHT =1994 YEAR: 1994
EXTT0=
EXTT1=
EXTT2=
EXTT3=
EXTT4=
EXTT5=(With the Butterfield Blues Band)
EXTT6=(With the Butterfield Blues Band)
EXTT7=
EXTT8=
EXTT9=
EXTT10=
EXTT11=
EXTT12=
EXTT13=(Featuring Nick Gravenites)
EXTT14=
PLAYORDER=
